<svg width="48" height="48" viewBox="0 0 48 48" fill="none" xmlns="http://www.w3.org/2000/svg">
<g clip-path="url(#clip0_62_62)">
<rect width="48" height="48" fill="white"/>
<path d="M46.5 22C46.5 23.3807 45.3807 24.5 44 24.5L4 24.5C2.61929 24.5 1.5 23.3807 1.5 22L1.5 8C1.5 6.61929 2.61929 5.5 4 5.5L44 5.50001C45.3807 5.50001 46.5 6.61929 46.5 8.00001L46.5 22Z" stroke="#31446D" stroke-width="3"/>
<path d="M28 12H21" stroke="#FF4988" stroke-width="3" stroke-linecap="round"/>
<path d="M47 18L3 18" stroke="#31446D" stroke-width="3" stroke-linecap="round"/>
<path d="M9 30C11.1667 31.8333 14.2 36.9 9 42.5" stroke="#31446D" stroke-width="3" stroke-linecap="round"/>
<path d="M16 30C18.1667 31.8333 21.2 36.9 16 42.5" stroke="#31446D" stroke-width="3" stroke-linecap="round"/>
<path d="M34.8712 30C32.7045 31.8333 29.6712 36.9 34.8712 42.5" stroke="#31446D" stroke-width="3" stroke-linecap="round"/>
<path d="M41.8712 30C39.7045 31.8333 36.6712 36.9 41.8712 42.5" stroke="#31446D" stroke-width="3" stroke-linecap="round"/>
</g>
<defs>
<clipPath id="clip0_62_62">
<rect width="48" height="48" fill="white"/>
</clipPath>
</defs>
</svg>
