<svg width="48" height="48" viewBox="0 0 48 48" fill="none" xmlns="http://www.w3.org/2000/svg">
<path d="M29.5 40C29.5 41.3599 28.4006 42.9673 25.7722 44.3239C23.2205 45.6409 19.5911 46.5 15.5 46.5C11.4089 46.5 7.77948 45.6409 5.22781 44.3239C2.59941 42.9673 1.5 41.3599 1.5 40C1.5 38.6401 2.59941 37.0327 5.22781 35.6761C7.77948 34.3591 11.4089 33.5 15.5 33.5C19.5911 33.5 23.2205 34.3591 25.7722 35.6761C28.4006 37.0327 29.5 38.6401 29.5 40Z" stroke="#31446D" stroke-width="3"/>
<path d="M26.5 12.2927C26.5 15.4662 25.2061 22.7237 23.0609 29.222C21.9918 32.4605 20.745 35.4039 19.4057 37.5073C18.7357 38.5595 18.0815 39.3389 17.4679 39.8416C16.8582 40.341 16.3747 40.5 16 40.5C15.6253 40.5 15.1418 40.341 14.5321 39.8416C13.9185 39.3389 13.2643 38.5595 12.5943 37.5073C11.255 35.4039 10.0082 32.4605 8.93911 29.222C6.7939 22.7237 5.5 15.4662 5.5 12.2927C5.5 6.29777 10.2349 1.5 16 1.5C21.7651 1.5 26.5 6.29777 26.5 12.2927Z" fill="white" stroke="#31446D" stroke-width="3"/>
<path d="M19.5 14C19.5 16.2091 17.7091 18 15.5 18C13.2909 18 11.5 16.2091 11.5 14C11.5 11.7909 13.2909 10 15.5 10C17.7091 10 19.5 11.7909 19.5 14Z" stroke="#FF4988" stroke-width="3"/>
</svg>
