<svg width="48" height="48" viewBox="0 0 48 48" fill="none" xmlns="http://www.w3.org/2000/svg">
<rect width="48" height="48" fill="white"/>
<mask id="path-1-inside-1_17_151" fill="white">
<path fill-rule="evenodd" clip-rule="evenodd" d="M17.7177 6.59091C16.8999 6.59091 16.1645 7.08881 15.8607 7.84813L14.1818 12.0455H8C3.58172 12.0455 0 15.6272 0 20.0455V32.4091C0 36.8274 3.58172 40.4091 8 40.4091H40C44.4183 40.4091 48 36.8274 48 32.4091V20.0455C48 15.6272 44.4183 12.0455 40 12.0455H33.2727L32.064 8.01622C31.8102 7.17025 31.0315 6.59091 30.1483 6.59091H17.7177Z"/>
</mask>
<path d="M15.8607 7.84813L18.6462 8.9623V8.9623L15.8607 7.84813ZM14.1818 12.0455V15.0455H16.2129L16.9672 13.1596L14.1818 12.0455ZM33.2727 12.0455L30.3992 12.9075L31.0406 15.0455H33.2727V12.0455ZM32.064 8.01622L29.1905 8.87826V8.87826L32.064 8.01622ZM18.6462 8.9623C18.4943 9.34196 18.1266 9.59091 17.7177 9.59091V3.59091C15.6732 3.59091 13.8346 4.83566 13.0753 6.73396L18.6462 8.9623ZM16.9672 13.1596L18.6462 8.9623L13.0753 6.73396L11.3964 10.9313L16.9672 13.1596ZM8 15.0455H14.1818V9.04546H8V15.0455ZM3 20.0455C3 17.284 5.23857 15.0455 8 15.0455V9.04546C1.92487 9.04546 -3 13.9703 -3 20.0455H3ZM3 32.4091V20.0455H-3V32.4091H3ZM8 37.4091C5.23858 37.4091 3 35.1705 3 32.4091H-3C-3 38.4842 1.92487 43.4091 8 43.4091V37.4091ZM40 37.4091H8V43.4091H40V37.4091ZM45 32.4091C45 35.1705 42.7614 37.4091 40 37.4091V43.4091C46.0751 43.4091 51 38.4842 51 32.4091H45ZM45 20.0455V32.4091H51V20.0455H45ZM40 15.0455C42.7614 15.0455 45 17.284 45 20.0455H51C51 13.9703 46.0751 9.04546 40 9.04546V15.0455ZM33.2727 15.0455H40V9.04546H33.2727V15.0455ZM29.1905 8.87826L30.3992 12.9075L36.1462 11.1834L34.9374 7.15417L29.1905 8.87826ZM30.1483 9.59091C29.7067 9.59091 29.3174 9.30124 29.1905 8.87826L34.9374 7.15417C34.303 5.03925 32.3563 3.59091 30.1483 3.59091V9.59091ZM17.7177 9.59091H30.1483V3.59091H17.7177V9.59091Z" fill="#31446D" mask="url(#path-1-inside-1_17_151)"/>
<path d="M29.5 26.5C29.5 29.8137 26.8137 32.5 23.5 32.5C20.1863 32.5 17.5 29.8137 17.5 26.5C17.5 23.1863 20.1863 20.5 23.5 20.5C26.8137 20.5 29.5 23.1863 29.5 26.5Z" stroke="#FF4988" stroke-width="3"/>
<path d="M34 18H40" stroke="#31446D" stroke-width="3" stroke-linecap="round" stroke-linejoin="round"/>
</svg>
